<svg xmlns="http://www.w3.org/2000/svg" xmlns:xlink="http://www.w3.org/1999/xlink" id="Layer_1" x="0" y="0" version="1.1" viewBox="0 0 166 42" xml:space="preserve"><style>.st0{fill:#ffffff}.st1{clip-path:url(#SVGID_2_);fill:#fff}.st77{fill:#fff}</style><path d="M73.1 11v19.6h-3L59 14.9v15.7h-2.7V11h3.1l10.9 15.6V11h2.8zM88.8 21.8V26c0 1.1-.4 4.8-6.1 4.8-5.7 0-6.2-3.7-6.2-4.8 0-2.9 2.6-4.6 6.9-4.6.9 0 1.8.1 2.7.2-.1-2.6-1.2-3.6-4-3.6-1.7 0-3.1.4-4 .7v-2.3c1.1-.4 2.6-.8 4.4-.8 4 0 6.3 2.2 6.3 6.2zm-2.7 1.8c-.7-.1-1.6-.2-2.6-.2-1.3 0-4.3.4-4.3 2.5 0 1.7 1.2 2.5 3.5 2.5 2.2 0 3.4-.8 3.4-2.4v-2.4zM104.6 15.9L99 30.5h-2.8l-5.6-14.6h2.9l4.1 11.4 4.1-11.4h2.9zM110.5 13.6h-2.9v-2.8h2.9v2.8zm-2.8 2.3h2.7v14.6h-2.7V15.9zM126.1 20.2v10.9c0 2.3-1.1 5.1-6.4 5.1-1.6 0-3-.2-4.3-.6V33c1.2.4 2.6.6 4.1.6 4 0 4-1.6 4-2.6v-1.3c-1 .3-2 .4-3 .4-4.2 0-6.5-2.6-6.5-7.2 0-4.3 1.8-7.5 6.3-7.5 3.4.2 5.8 1.8 5.8 4.8zm-2.7-.1c0-.5 0-2.1-3.2-2.1-1.7 0-3.6.6-3.6 5.1 0 4.2 1.8 4.7 3.8 4.7 1 0 2-.2 3-.6v-7.1zM132.9 13.6H130v-2.8h2.9v2.8zm-2.7 2.3h2.7v14.6h-2.7V15.9zM137.3 30.5V17.1c.1-.1 2.8-1.5 6.2-1.5 3.7 0 5.9 2.1 5.9 5.5v9.4h-2.7v-9.6c0-1.4-.4-2.8-3.3-2.8-1.3 0-2.5.2-3.4.5v11.9h-2.7zM164.8 27.4v2.4c-1.4.6-3.1 1-5.2 1-3.1 0-6.7-1.3-6.7-7.4 0-1.9 0-7.7 6.5-7.7 3.9 0 6.5 2.8 6.5 7.1 0 .7 0 1.4-.1 2h-10.1c.4 3 2.2 3.7 4.1 3.7 2.1 0 3.8-.5 5-1.1zm-9.2-5.1h7.5c-.1-1.7-.9-4.3-3.8-4.3-2.4 0-3.5 1.2-3.7 4.3z" class="st0"/><g><defs><circle id="SVGID_37_" cx="23.4" cy="21.7" r="19.3"/></defs><clipPath id="SVGID_2_"><use overflow="visible" xlink:href="#SVGID_37_"/></clipPath><path d="M4 3h38v38H4z" class="st1"/><circle cx="23.4" cy="21.7" r="19.3" class="st1"/><circle cx="23.4" cy="21.7" r="19.2" fill="#3363a4" clip-path="url(#SVGID_2_)"/><circle cx="23.4" cy="21.7" r="19.1" fill="#3464a4" clip-path="url(#SVGID_2_)"/><circle cx="23.4" cy="21.7" r="19" fill="#3465a5" clip-path="url(#SVGID_2_)"/><circle cx="23.4" cy="21.7" r="18.9" fill="#3466a6" clip-path="url(#SVGID_2_)"/><circle cx="23.4" cy="21.7" r="18.8" fill="#3567a6" clip-path="url(#SVGID_2_)"/><circle cx="23.4" cy="21.7" r="18.7" fill="#3568a7" clip-path="url(#SVGID_2_)"/><circle cx="23.4" cy="21.7" r="18.6" fill="#3569a8" clip-path="url(#SVGID_2_)"/><circle cx="23.4" cy="21.7" r="18.5" fill="#366aa8" clip-path="url(#SVGID_2_)"/><circle cx="23.4" cy="21.7" r="18.4" fill="#366ba9" clip-path="url(#SVGID_2_)"/><circle cx="23.4" cy="21.7" r="18.3" fill="#366caa" clip-path="url(#SVGID_2_)"/><circle cx="23.4" cy="21.7" r="18.2" fill="#376daa" clip-path="url(#SVGID_2_)"/><circle cx="23.4" cy="21.7" r="18.1" fill="#376eab" clip-path="url(#SVGID_2_)"/><circle cx="23.4" cy="21.7" r="18" fill="#386fab" clip-path="url(#SVGID_2_)"/><circle cx="23.4" cy="21.7" r="17.9" fill="#3870ac" clip-path="url(#SVGID_2_)"/><circle cx="23.4" cy="21.7" r="17.8" fill="#3871ad" clip-path="url(#SVGID_2_)"/><circle cx="23.4" cy="21.7" r="17.7" fill="#3972ad" clip-path="url(#SVGID_2_)"/><circle cx="23.4" cy="21.7" r="17.6" fill="#3973ae" clip-path="url(#SVGID_2_)"/><circle cx="23.4" cy="21.7" r="17.5" fill="#3974af" clip-path="url(#SVGID_2_)"/><circle cx="23.4" cy="21.7" r="17.4" fill="#3a75af" clip-path="url(#SVGID_2_)"/><circle cx="23.4" cy="21.7" r="17.3" fill="#3a76b0" clip-path="url(#SVGID_2_)"/><circle cx="23.4" cy="21.7" r="17.2" fill="#3a77b1" clip-path="url(#SVGID_2_)"/><circle cx="23.4" cy="21.7" r="17.1" fill="#3b78b1" clip-path="url(#SVGID_2_)"/><circle cx="23.4" cy="21.7" r="17" fill="#3b79b2" clip-path="url(#SVGID_2_)"/><circle cx="23.4" cy="21.7" r="16.9" fill="#3b7ab3" clip-path="url(#SVGID_2_)"/><circle cx="23.4" cy="21.7" r="16.8" fill="#3c7bb3" clip-path="url(#SVGID_2_)"/><circle cx="23.4" cy="21.7" r="16.7" fill="#3c7cb4" clip-path="url(#SVGID_2_)"/><circle cx="23.4" cy="21.7" r="16.6" fill="#3c7db5" clip-path="url(#SVGID_2_)"/><circle cx="23.4" cy="21.7" r="16.5" fill="#3d7eb5" clip-path="url(#SVGID_2_)"/><circle cx="23.4" cy="21.7" r="16.3" fill="#3d7fb6" clip-path="url(#SVGID_2_)"/><circle cx="23.4" cy="21.7" r="16.2" fill="#3d80b7" clip-path="url(#SVGID_2_)"/><circle cx="23.4" cy="21.7" r="16.1" fill="#3e81b7" clip-path="url(#SVGID_2_)"/><circle cx="23.4" cy="21.7" r="16" fill="#3e82b8" clip-path="url(#SVGID_2_)"/><circle cx="23.4" cy="21.7" r="15.9" fill="#3e83b9" clip-path="url(#SVGID_2_)"/><circle cx="23.4" cy="21.7" r="15.8" fill="#3f84b9" clip-path="url(#SVGID_2_)"/><circle cx="23.4" cy="21.7" r="15.7" fill="#3f85ba" clip-path="url(#SVGID_2_)"/><circle cx="23.4" cy="21.7" r="15.6" fill="#3f86bb" clip-path="url(#SVGID_2_)"/><circle cx="23.4" cy="21.7" r="15.5" fill="#4087bb" clip-path="url(#SVGID_2_)"/><circle cx="23.4" cy="21.7" r="15.4" fill="#4089bc" clip-path="url(#SVGID_2_)"/><circle cx="23.4" cy="21.7" r="15.3" fill="#418abc" clip-path="url(#SVGID_2_)"/><circle cx="23.4" cy="21.7" r="15.2" fill="#418bbd" clip-path="url(#SVGID_2_)"/><circle cx="23.4" cy="21.7" r="15.1" fill="#418cbe" clip-path="url(#SVGID_2_)"/><circle cx="23.4" cy="21.7" r="15" fill="#428dbe" clip-path="url(#SVGID_2_)"/><circle cx="23.4" cy="21.7" r="14.9" fill="#428ebf" clip-path="url(#SVGID_2_)"/><circle cx="23.4" cy="21.7" r="14.8" fill="#428fc0" clip-path="url(#SVGID_2_)"/><circle cx="23.4" cy="21.7" r="14.7" fill="#4390c0" clip-path="url(#SVGID_2_)"/><circle cx="23.4" cy="21.7" r="14.6" fill="#4391c1" clip-path="url(#SVGID_2_)"/><circle cx="23.4" cy="21.7" r="14.5" fill="#4392c2" clip-path="url(#SVGID_2_)"/><circle cx="23.4" cy="21.7" r="14.4" fill="#4493c2" clip-path="url(#SVGID_2_)"/><circle cx="23.4" cy="21.7" r="14.3" fill="#4494c3" clip-path="url(#SVGID_2_)"/><circle cx="23.4" cy="21.7" r="14.2" fill="#4495c4" clip-path="url(#SVGID_2_)"/><circle cx="23.4" cy="21.7" r="14.1" fill="#4596c4" clip-path="url(#SVGID_2_)"/><circle cx="23.4" cy="21.7" r="14" fill="#4597c5" clip-path="url(#SVGID_2_)"/><circle cx="23.4" cy="21.7" r="13.9" fill="#4598c6" clip-path="url(#SVGID_2_)"/><circle cx="23.4" cy="21.7" r="13.8" fill="#4699c6" clip-path="url(#SVGID_2_)"/><circle cx="23.4" cy="21.7" r="13.7" fill="#469ac7" clip-path="url(#SVGID_2_)"/><circle cx="23.4" cy="21.7" r="13.6" fill="#469bc8" clip-path="url(#SVGID_2_)"/><circle cx="23.4" cy="21.7" r="13.5" fill="#479cc8" clip-path="url(#SVGID_2_)"/><circle cx="23.4" cy="21.7" r="13.4" fill="#479dc9" clip-path="url(#SVGID_2_)"/><circle cx="23.4" cy="21.7" r="13.3" fill="#479eca" clip-path="url(#SVGID_2_)"/><circle cx="23.4" cy="21.7" r="13.2" fill="#489fca" clip-path="url(#SVGID_2_)"/><circle cx="23.4" cy="21.7" r="13.1" fill="#48a0cb" clip-path="url(#SVGID_2_)"/><circle cx="23.4" cy="21.7" r="13" fill="#48a1cc" clip-path="url(#SVGID_2_)"/><circle cx="23.4" cy="21.7" r="12.9" fill="#49a2cc" clip-path="url(#SVGID_2_)"/><circle cx="23.4" cy="21.7" r="12.8" fill="#49a3cd" clip-path="url(#SVGID_2_)"/><circle cx="23.4" cy="21.7" r="12.7" fill="#4aa4cd" clip-path="url(#SVGID_2_)"/><circle cx="23.4" cy="21.7" r="12.6" fill="#4aa5ce" clip-path="url(#SVGID_2_)"/><circle cx="23.4" cy="21.7" r="12.5" fill="#4aa6cf" clip-path="url(#SVGID_2_)"/><circle cx="23.4" cy="21.7" r="12.4" fill="#4ba7cf" clip-path="url(#SVGID_2_)"/><circle cx="23.4" cy="21.7" r="12.3" fill="#4ba8d0" clip-path="url(#SVGID_2_)"/><circle cx="23.4" cy="21.7" r="12.2" fill="#4ba9d1" clip-path="url(#SVGID_2_)"/><circle cx="23.4" cy="21.7" r="12.1" fill="#4caad1" clip-path="url(#SVGID_2_)"/><circle cx="23.4" cy="21.7" r="12" fill="#4cabd2" clip-path="url(#SVGID_2_)"/><circle cx="23.4" cy="21.7" r="11.9" fill="#4cacd3" clip-path="url(#SVGID_2_)"/><circle cx="23.4" cy="21.7" r="11.8" fill="#4dadd3" clip-path="url(#SVGID_2_)"/><circle cx="23.4" cy="21.7" r="11.6" fill="#4daed4" clip-path="url(#SVGID_2_)"/><g><path d="M43.4 21.4l-4.9-6-.8-7.7-.4-.4s-3.9-.4-7.7-.8l-.2-.2c-2.8-2.4-5.7-4.7-5.7-4.7h-.6S20.2 4 17.3 6.3l-.2.2c-3.7.5-7.6.9-7.7.9l-.4.4s-.4 3.9-.8 7.7l-.2.2c-2.4 2.8-4.7 5.7-4.7 5.8v.5s2.3 2.9 4.7 5.7l.3.3c.3 3.8.7 7.6.7 7.7l.4.4s3.9.4 7.7.7l.2.2c2.8 2.4 5.7 4.7 5.8 4.7h.6l6-4.9 7.7-.8.4-.4s.4-3.9.8-7.7l.1-.2c2.4-2.8 4.7-5.8 4.8-5.8l-.1-.5zM36.8 8.3l.7 6.7c-1-.5-2.9-1.6-4.8-2.5l-.1-.2c-1-1.8-1.9-3.6-2.4-4.6 2.8.2 5.6.5 6.6.6zm-10 22.5c-.5-.2-1.5-.5-2.6-.8 1-.3 1.8-.7 2.4-.9.4-.2 1.1-.5 1.8-.9-.6 1.1-1.2 2.1-1.5 2.6h-.1zm-7-.1c-.3-.5-.9-1.5-1.5-2.6.7.4 1.4.7 1.8.9.5.2 1.4.6 2.4.9-1.1.4-2.1.7-2.6.9v-.1h-.1zm-8.9-8.1c.6.7 1.5 1.9 2.5 3.1.1 1.6.3 3.3.4 4.2l-4.5-2.4c.4-.8 1-2.8 1.6-4.9zm0-1.7c-.7-2.1-1.3-4.1-1.5-4.9.7-.4 2.6-1.4 4.5-2.4-.1 1-.3 2.6-.4 4.2-1 1.2-2 2.4-2.6 3.1zm2.9 4c-1.1-1.3-2.2-2.6-2.6-3.1.4-.5 1.5-1.8 2.6-3.1.2.6.6 1.9 1 3.1-.4 1.2-.8 2.5-1 3.1zM20 12.7c.5.2 1.5.5 2.5.8-1 .3-1.9.7-2.4.9-.4.2-1.1.5-1.8.9.6-1.1 1.2-2.1 1.5-2.6h.2zm7 0c.3.5.9 1.5 1.5 2.6-.7-.4-1.3-.7-1.8-.9-.5-.2-1.4-.6-2.4-.9 1.1-.4 2-.7 2.5-.8v.1l.2-.1zm-1.8 13.9c-.2-.1-.6-.2-1.1-.4.4-.1.8-.3 1-.4.2-.1.4-.2.7-.4-.2.5-.4.9-.6 1.2zm-4.3-1.2c.3.1.5.3.7.4.2.1.6.2 1 .4-.5.2-.9.3-1.1.4-.1-.3-.3-.7-.6-1.2zm.6-8.5c.2.1.6.2 1.1.4-.4.2-.8.3-1.1.4-.2.1-.4.2-.7.3.4-.4.6-.9.7-1.1zm4.4 1.1c-.3-.1-.5-.3-.7-.3-.2-.1-.6-.3-1.1-.4.5-.2.9-.3 1.1-.4.2.2.4.7.7 1.1zm-1.1 7.3c-.2-.1-.5-.2-.9-.3.3-.1.7-.2.8-.3l.6-.3c-.2.4-.5.7-.5.9zm-3.3-.9c.2.1.5.2.6.3.2.1.5.2.8.3-.4.1-.8.2-.9.3-.1-.2-.3-.5-.5-.9zm.5-6.2c.2.1.5.2.9.3-.3.1-.7.2-.9.3l-.6.3c.3-.4.5-.8.6-.9zm3.3.9c-.2-.1-.5-.2-.6-.3-.2-.1-.5-.2-.9-.3.4-.1.8-.3.9-.3.1.1.4.5.6.9zm0 4.1c.1-.2.2-.4.2-.5.1-.2.2-.4.3-.7.1.3.2.6.2.7 0 .2-.3.3-.7.5zm-.9 1.2c-.1 0-.4-.1-.7-.2.3-.1.5-.2.7-.3.1-.1.3-.1.5-.3-.2.4-.4.7-.5.8zm-2.5-.7c.2.1.4.2.5.3.2.1.4.2.7.3-.3.1-.6.2-.7.2-.1-.2-.3-.5-.5-.8zm-1.2-.9c0-.1.1-.4.2-.7.1.3.2.5.3.7.1.1.1.3.2.5-.3-.3-.6-.4-.7-.5zm.7-2.5c-.1.2-.2.4-.2.5-.1.2-.2.4-.3.7-.1-.3-.2-.6-.2-.7.1-.2.4-.3.7-.5zm.9-1.3c.1 0 .4.1.7.2-.3.1-.5.2-.7.3-.1.1-.3.1-.5.2.3-.2.5-.5.5-.7zm2.5.8c-.2-.1-.4-.2-.5-.2-.2-.1-.4-.2-.7-.3.3-.1.6-.2.7-.2.2.1.4.4.5.7zm.1 2.6c-.1.1-.2.3-.3.5l-.6.3c-.1.1-.4.2-.7.2-.3-.1-.5-.2-.7-.2-.1-.1-.3-.2-.6-.3-.1-.2-.2-.4-.3-.5-.1-.1-.2-.4-.2-.7.1-.3.2-.5.2-.7.1-.1.2-.3.3-.5.2-.1.4-.2.5-.3.1-.1.4-.2.7-.2.3.1.5.2.7.2.1.1.3.2.5.3.1.2.2.4.3.5.1.1.2.4.2.7.1.3 0 .6 0 .7zm.3-.5c.1.3.2.5.2.6-.1.1-.4.2-.6.4.1-.2.2-.3.2-.4 0-.2.1-.4.2-.6zm-.7 1.2c-.2.3-.3.5-.4.6-.1 0-.3-.1-.6-.2.2-.1.4-.2.5-.2.2 0 .3-.1.5-.2zm-1.3.4c-.3.1-.5.2-.6.2-.1-.1-.2-.4-.4-.6.2.1.3.2.4.2.2.1.4.2.6.2zm-1.2-.6c-.3-.2-.5-.3-.6-.4 0-.1.1-.3.2-.6.1.2.2.4.2.6l.2.4zm-.4-1.3c-.1-.3-.2-.5-.2-.6.1-.1.3-.2.6-.4-.1.2-.2.3-.2.4-.1.2-.1.4-.2.6zm.7-1.2c.2-.3.3-.5.4-.6.1 0 .3.1.6.2-.2.1-.4.2-.6.2-.1 0-.3.1-.4.2zm1.2-.4c.3-.1.5-.2.6-.2.1.1.2.4.4.6-.2-.1-.3-.2-.4-.2-.1-.1-.4-.2-.6-.2zm1.5 1c0-.1-.1-.3-.2-.4.3.2.5.3.6.4 0 .1-.1.3-.2.6-.1-.2-.2-.4-.2-.6zm-.3-.5c-.2-.3-.4-.7-.4-.8h.1c.2.1.4.2.7.4.2.3.3.6.4.7v.1c-.2-.1-.5-.3-.8-.4zm-.6-.8c-.1 0-.4.1-.7.2-.3-.1-.7-.2-.7-.2.2-.1.5-.2.7-.3.3.1.5.2.7.3zm-1.6 0c0 .1-.2.4-.4.7-.3.2-.7.4-.8.4v-.1c.1-.2.2-.4.4-.7.3-.1.6-.2.8-.3zM21.3 21c0 .1.1.4.2.7-.1.3-.2.7-.2.7-.1-.2-.2-.5-.3-.7.1-.2.2-.5.3-.7zm.1 1.6c-.1 0-.1 0 0 0s.4.2.7.4c.2.3.4.7.4.8-.2-.1-.5-.2-.8-.4-.1-.3-.3-.6-.3-.8zm1.2 1.2c.1 0 .4-.1.7-.2.3.1.7.2.7.2-.2.1-.5.2-.7.3-.2-.1-.5-.2-.7-.3zm1.7 0s-.1 0 0 0c0-.1.2-.4.4-.7.3-.2.7-.4.8-.4v.1c-.1.2-.2.4-.4.7-.4 0-.7.2-.8.3zm1.2-1.3c0-.1-.1-.4-.2-.7.1-.3.2-.7.2-.7.1.2.2.5.3.7-.2.2-.3.5-.3.7zm.1-1.7c-.1-.1-.1-.3-.2-.5.3.2.6.4.7.4 0 .1-.1.4-.2.7-.2-.2-.3-.5-.3-.6zm-.4-.8c-.2-.3-.4-.6-.5-.8.2.1.5.3.9.4.2.3.3.6.4.9-.2-.2-.5-.4-.8-.5zm-1-1.1c-.2.1-.5.2-.8.3-.3-.1-.6-.2-.8-.3.2-.1.5-.2.8-.3.3.1.5.2.8.3zm-2.1.2c-.1.2-.3.5-.5.8-.3.2-.6.4-.8.5.1-.2.3-.5.4-.9.3-.1.6-.3.9-.4zm-1.7 1.3c-.1.2-.2.5-.3.9-.1-.4-.2-.8-.3-.9.2-.1.5-.3.9-.5-.1.2-.2.4-.3.5zm.1.5c.1.2.2.5.3.8-.1.3-.2.6-.3.8-.1-.2-.2-.5-.3-.8.2-.2.3-.5.3-.8zm-.1 2.1l.3.6c-.4-.2-.8-.4-.9-.5.1-.2.2-.5.3-.9.1.3.2.7.3.8zm.4.1c.2.1.5.3.8.5.2.3.4.6.5.8-.2-.1-.5-.3-.9-.5-.2-.3-.3-.6-.4-.8zm1.8 1.5c.2-.1.5-.2.8-.3.3.1.6.2.8.3-.2.1-.5.2-.8.3-.3-.1-.6-.2-.8-.3zm2.1-.2c.1-.2.3-.5.5-.8.3-.2.6-.4.8-.5-.1.2-.3.5-.4.9-.4.1-.7.3-.9.4zm1.6-1.4c.1-.2.2-.5.3-.9.1.4.2.8.3.9-.2.1-.5.3-.9.5.1-.1.2-.3.3-.5zm-.1-.5c-.1-.2-.2-.5-.3-.8.1-.3.2-.6.3-.8.1.2.2.5.3.8-.1.3-.2.6-.3.8zm.1-2.1l-.3-.6c.4.2.8.4.9.5-.1.2-.2.5-.3.9-.1-.3-.2-.6-.3-.8zm-.5-1c-.2-.4-.5-.9-.7-1.2.3.1.7.4 1.2.6.2.5.5.9.6 1.2-.3-.1-.7-.4-1.1-.6zm-1.3-1.5c-.3.1-.7.2-1.1.4-.4-.1-.9-.3-1.1-.4.3-.1.7-.3 1.1-.4.4.2.8.3 1.1.4zm-2.9.3c-.2.3-.4.7-.7 1.2-.4.2-.9.5-1.2.7.1-.3.4-.7.6-1.2.6-.3 1-.6 1.3-.7zm-2.3 1.7c-.1.2-.3.6-.4 1.1-.2-.5-.3-.9-.4-1.1.2-.1.6-.4 1.1-.6-.1.2-.2.5-.3.6zm.3.7c.1.3.2.7.4 1.1-.1.4-.3.9-.4 1.1-.1-.3-.3-.7-.4-1.1.1-.4.3-.8.4-1.1zm-.3 2.9c.1.2.2.4.3.7-.5-.3-.9-.5-1.1-.6.1-.2.2-.6.4-1.1.2.4.3.8.4 1zm.5 0c.3.2.7.4 1.2.7.2.4.5.9.7 1.2-.3-.1-.7-.4-1.2-.6-.3-.6-.5-1-.7-1.3zm2.5 2c.3-.1.7-.2 1.1-.4.4.1.9.3 1.1.4-.3.1-.7.3-1.1.4-.4-.1-.8-.2-1.1-.4zm2.8-.2c.2-.3.4-.7.7-1.2.4-.2.9-.5 1.2-.7-.1.3-.4.7-.6 1.2-.6.3-1 .5-1.3.7zm2.3-1.8c.1-.2.3-.6.4-1.1.2.5.3.9.4 1.1-.2.1-.6.4-1.1.6.1-.1.2-.4.3-.6zm-.2-.6c-.1-.3-.2-.7-.4-1.1.1-.4.3-.9.4-1.1.1.3.3.7.4 1.1-.2.3-.3.7-.4 1.1zm.2-3c-.1-.2-.2-.4-.3-.7.5.3.9.5 1.1.6-.1.2-.2.6-.4 1.1-.1-.3-.3-.7-.4-1zm-.7-1.4c-.3-.5-.6-1-.8-1.4.4.2.9.5 1.5.8.3.5.6 1.1.8 1.5-.5-.4-1-.7-1.5-.9zm-.9-2.1c-.3-.2-.9-.4-1.5-.6.7-.2 1.3-.4 1.6-.5.2.3.5.9.9 1.6l-1-.5zm-1.1.2c-.4.1-.9.3-1.4.5-.5-.2-1-.3-1.4-.5.4-.2.9-.3 1.4-.5.6.2 1 .3 1.4.5zm-3.7-.2c-.3.1-.6.3-1 .5.4-.7.7-1.3.9-1.6.3.1.9.3 1.6.5-.6.2-1.2.4-1.5.6zm-.1.6c-.2.4-.5.9-.8 1.4-.5.3-1 .6-1.4.8.2-.4.5-.9.8-1.5.5-.2 1-.5 1.4-.7zM18 19.3c-.2.3-.4.9-.6 1.5-.2-.7-.4-1.3-.5-1.6.3-.2.9-.5 1.6-.9l-.5 1zm.2 1.1c.1.4.3.9.5 1.4-.2.5-.3 1-.5 1.4-.2-.4-.3-.9-.5-1.4.2-.5.4-1 .5-1.4zm-.2 3.7c.1.3.3.6.5 1-.7-.4-1.3-.7-1.6-.9.1-.3.3-.9.5-1.6.2.6.4 1.2.6 1.5zm.7.1c.4.2.9.5 1.4.8.3.5.6 1 .8 1.4-.4-.2-.9-.5-1.5-.8-.3-.5-.5-1-.7-1.4zm2.3 2.9c.3.2.9.4 1.5.6-.7.2-1.3.4-1.6.5-.2-.3-.5-.9-.9-1.6.4.2.7.4 1 .5zm1-.2c.4-.1.9-.3 1.4-.5.5.2 1 .3 1.4.5-.4.2-.9.3-1.4.5-.5-.2-1-.3-1.4-.5zm3.7.2c.3-.1.6-.3 1-.5-.4.7-.7 1.3-.9 1.6-.3-.1-.9-.3-1.6-.5.7-.2 1.2-.4 1.5-.6zm.2-.7c.2-.4.5-.9.8-1.4.5-.3 1-.6 1.4-.8-.2.4-.5.9-.8 1.5-.5.3-1 .5-1.4.7zm2.9-2.3c.2-.3.4-.9.6-1.5.2.7.4 1.3.5 1.6-.3.2-.9.5-1.6.9.2-.4.3-.7.5-1zm-.3-1c-.1-.4-.3-.9-.5-1.4.2-.5.3-1 .5-1.4.2.4.3.9.5 1.4-.1.5-.3 1-.5 1.4zm.3-3.8c-.1-.3-.3-.6-.5-1 .7.4 1.3.7 1.6.9-.1.3-.3.9-.5 1.6-.3-.6-.5-1.1-.6-1.5zm-1.1-1.9c-.6-1.1-1.2-2.2-1.4-2.5h.1c.6.3 1.5.8 2.5 1.3.5 1 1 1.9 1.3 2.5v.1c-.3-.2-1.4-.8-2.5-1.4zm-4.3-1.9c-1.1-.4-2.1-.7-2.4-.8.7-.3 1.5-.6 2.4-.9.9.3 1.8.6 2.4.9-.3.1-1.4.4-2.4.8zM19 17.4c-1.1.6-2.2 1.2-2.5 1.4v-.1c.3-.6.8-1.5 1.3-2.5 1-.5 1.9-1 2.5-1.3h.1c-.2.3-.8 1.4-1.4 2.5zm-2.7 1.9c.1.3.4 1.4.8 2.4-.4 1.1-.7 2.1-.8 2.4-.3-.7-.6-1.5-.9-2.4.3-.9.6-1.7.9-2.4zm2.7 6.8c.6 1.1 1.2 2.2 1.4 2.5h-.1c-.6-.3-1.5-.8-2.5-1.3-.5-1-1-1.9-1.3-2.5v-.1c.3.2 1.4.8 2.5 1.4zm4.4 1.9c1.1.4 2.1.7 2.4.8-.7.3-1.5.6-2.4.9-.9-.3-1.8-.6-2.4-.9.3-.1 1.3-.4 2.4-.8zm4.3-1.9c1.1-.6 2.2-1.2 2.5-1.4v.1c-.3.6-.8 1.5-1.3 2.5-1 .5-2 1.1-2.5 1.3h-.1c.2-.3.8-1.4 1.4-2.5zm2.7-1.9c-.1-.3-.4-1.4-.8-2.4.4-1.1.7-2.1.8-2.4.3.7.6 1.5.9 2.4-.3.8-.6 1.7-.9 2.4zm.3-5.7c-.2-.4-.5-1.1-.9-1.8 1.1.6 2.1 1.2 2.6 1.5v.1h.1c-.1.5-.5 1.5-.9 2.6-.3-1-.6-1.9-.9-2.4zm-1.4-2.7c-.6-1.1-1.3-2.3-1.7-3 1.8.2 3.5.3 4.3.4l.4 4.3c-.7-.4-1.8-1.1-3-1.7zm-5.9-2.6c-1.3-.4-2.5-.8-3.1-1 1.3-1.1 2.6-2.2 3.1-2.6.5.4 1.8 1.5 3.1 2.6-.6.2-1.9.6-3.1 1zm-6 2.6c-1.1.6-2.3 1.3-3 1.7.2-1.8.3-3.5.4-4.3.7-.1 2.5-.3 4.3-.4-.4.7-1 1.9-1.7 3zm-.5.9c-.4.7-.7 1.3-.9 1.8-.2.5-.6 1.4-.9 2.4-.3-1-.7-2-.8-2.5v-.3c.6-.2 1.6-.8 2.6-1.4zm-1.8 5.9c.3 1 .7 1.9.9 2.4.2.4.5 1.1.9 1.8-1.1-.6-2.1-1.2-2.6-1.5V25c.2-.5.5-1.4.8-2.4zm2.3 5.1c.6 1.1 1.3 2.3 1.7 3-1.8-.2-3.5-.3-4.3-.4-.1-.7-.3-2.5-.4-4.3.7.4 1.9 1.1 3 1.7zm6 2.6c1.3.4 2.5.8 3.1 1l-3.1 2.6c-.5-.4-1.8-1.5-3.1-2.6.6-.2 1.8-.6 3.1-1zm5.9-2.6c1.1-.6 2.3-1.3 3-1.7-.2 1.8-.3 3.5-.4 4.3l-4.3.4c.4-.7 1.1-1.9 1.7-3zm.5-.9c.4-.7.7-1.3.9-1.8.2-.5.6-1.4.9-2.4.4 1.1.7 2 .8 2.5h-.1v.2c-.4.3-1.4.9-2.5 1.5zm2.1-5.1c.4-1.3.8-2.5 1-3.1l2.6 3.1c-.4.5-1.5 1.8-2.6 3.1-.1-.5-.5-1.8-1-3.1zm1.3 4c1-1.2 2-2.4 2.6-3.1.7 2.1 1.3 4.1 1.5 4.9l-4.5 2.4c.1-1 .3-2.6.4-4.2zm2.6-4.8l-2.5-3.1-.4-4.3c1.9 1 3.7 2 4.5 2.4-.3.9-.9 2.9-1.6 5zm-4.3-8.6c-1-.1-2.6-.3-4.2-.4-1.2-1-2.4-2-3.1-2.5 2.1-.7 4.1-1.3 4.9-1.5.4.6 1.4 2.5 2.4 4.4zm-8.1-9.6c.8.6 3 2.4 5.2 4.2l-5 1.5-.2.1c-2-.6-4.1-1.3-5.2-1.6 2.2-1.8 4.4-3.5 5.2-4.2zm-5.8 5.1c.8.2 2.9.8 5 1.5-.7.6-1.9 1.6-3.1 2.6-1.6.1-3.3.3-4.2.4.9-1.9 1.9-3.8 2.3-4.5zm-7.7.5c1-.1 3.8-.4 6.7-.7-.5 1-1.6 2.9-2.5 4.8l-.2.1c-1.8 1-3.7 2-4.6 2.5.2-2.9.5-5.7.6-6.7zM8.6 26.9c-1.9-2.2-3.6-4.4-4.3-5.2.6-.8 2.4-3 4.2-5.2l1.5 5 .1.2c-.5 2.1-1.2 4.2-1.5 5.2zm1.3 8.3c-.1-1-.4-3.8-.7-6.7l4.8 2.6 2.6 4.8c-2.8-.3-5.7-.6-6.7-.7zm5.3-4c.9.1 2.6.3 4.2.4h.1c1.2 1 2.4 2 3.1 2.6-2.1.7-4.1 1.3-4.9 1.5l-2.5-4.5zm8.2 9.6c-.8-.6-3-2.4-5.2-4.2 1-.3 3.1-.9 5.1-1.6h.1c2 .6 4.1 1.3 5.2 1.6l-5.2 4.2zm5.8-5.1c-.8-.2-2.9-.8-5-1.5l3.1-2.5 4.2-.4-2.3 4.4zm7.6-.5l-6.7.7 2.6-4.8 4.8-2.6c-.3 2.9-.6 5.7-.7 6.7zm1.3-8.3l-1.5-5-.1-.2c.6-2 1.3-4.1 1.6-5.2l4.3 5.2c-.6.8-2.4 3-4.3 5.2z" class="st77"/></g><g><path d="M24.5 22.8s-.8.1-1.1.1c-.3 0-1.1-.1-1.1-.1s-.1-.8-.1-1.1c0-.3.1-1.1.1-1.1s.8-.1 1.1-.1c.3 0 1.1.1 1.1.1s.1.8.1 1.1c0 .3-.1 1.1-.1 1.1z" class="st77"/></g></g></svg>