<svg width="170" height="31" viewBox="0 0 170 31" fill="none" xmlns="http://www.w3.org/2000/svg">
<g clip-path="url(#clip0)">
<path fill-rule="evenodd" clip-rule="evenodd" d="M15.0782 30.707C16.2392 30.6939 17.3966 30.5754 18.5362 30.353C15.2052 19.333 12.8692 13.235 2.62618 6.71701C2.13626 7.4717 1.69825 8.25886 1.31519 9.07301C10.4622 13.956 15.3312 25.656 15.0782 30.707Z" fill="#00ABCD"/>
<path fill-rule="evenodd" clip-rule="evenodd" d="M19.6231 30.082C20.9374 29.6799 22.2008 29.1273 23.3881 28.435C18.8141 16.835 11.0571 7.177 4.44614 4.535C4.06314 4.93 3.70214 5.335 3.39014 5.718C11.6171 10.178 17.0581 18.672 19.6231 30.086V30.082Z" fill="#00ABCD"/>
<path fill-rule="evenodd" clip-rule="evenodd" d="M24.365 27.782C25.4465 26.9875 26.4191 26.0545 27.258 25.007C20.075 12.866 15.663 7.26301 6.95799 2.48901C6.37224 2.86426 5.81536 3.28275 5.29199 3.74101C10.61 6.54101 20.276 14.947 24.364 27.782H24.365Z" fill="#00ABCD"/>
<path fill-rule="evenodd" clip-rule="evenodd" d="M12.234 30.372C12.7937 30.488 13.3596 30.5708 13.929 30.62C12.881 21.152 6.44103 14.12 0.801025 10.434C0.595782 11.0284 0.428775 11.6353 0.301025 12.251C5.85004 17.0966 9.97608 23.3607 12.237 30.372H12.234Z" fill="#00ABCD"/>
<path fill-rule="evenodd" clip-rule="evenodd" d="M27.8222 24.287C28.6207 23.1759 29.2674 21.9632 29.7452 20.681C24.8932 11.312 19.9452 6.51001 12.2672 0.299011C11.5507 0.442181 10.8461 0.639075 10.1592 0.888016C14.1192 3.72702 25.4512 15.067 27.8222 24.288V24.287Z" fill="#00ABCD"/>
<path fill-rule="evenodd" clip-rule="evenodd" d="M30.2081 19.222C30.6342 17.5639 30.7755 15.8455 30.6261 14.14C27.4191 9.60501 19.4071 1.726 15.8101 0.0049973C15.0898 -0.0157767 14.3688 0.0112917 13.6521 0.0860062C18.2261 2.98601 25.1981 10.438 30.2081 19.223V19.222Z" fill="#00ABCD"/>
<path fill-rule="evenodd" clip-rule="evenodd" d="M30.217 11.528C29.9259 10.374 29.4975 9.25904 28.941 8.20702C27.1063 4.65859 23.9431 1.9795 20.141 0.754013C19.2901 0.488617 18.4212 0.284757 17.541 0.144012C21.835 2.47101 27.532 8.30202 30.216 11.529L30.217 11.528Z" fill="#00ABCD"/>
<path fill-rule="evenodd" clip-rule="evenodd" d="M11.0421 30.074C9.99812 29.8094 8.99756 29.3962 8.07111 28.847C5.74711 22.847 2.83111 18.472 0.00511121 15.821C-0.0159479 15.049 0.0117741 14.2765 0.0881114 13.508C3.18811 16.991 7.76811 21.424 11.0411 30.074H11.0421Z" fill="#00ABCD"/>
<path fill-rule="evenodd" clip-rule="evenodd" d="M4.14606 25.852C4.82214 26.5446 5.5543 27.1801 6.33506 27.752C5.20006 25.008 1.76606 20.262 0.185059 17.631C0.340101 18.8205 0.649713 19.9847 1.10606 21.094C1.83059 22.8464 2.85982 24.4566 4.14606 25.85V25.852Z" fill="#00ABCD"/>
<path d="M55.8672 10.468L52.1442 11.631C51.9261 10.977 51.4926 10.4163 50.9147 10.0405C50.3367 9.66474 49.6484 9.49605 48.9622 9.56201C47.2322 9.56201 46.3672 10.0857 46.3672 11.133C46.3652 11.3345 46.4076 11.5339 46.4914 11.7171C46.5752 11.9003 46.6984 12.0628 46.8522 12.193C47.5155 12.6105 48.2664 12.8688 49.0462 12.948C50.4713 13.1774 51.8715 13.5411 53.2282 14.034C54.1216 14.407 54.895 15.0191 55.4632 15.803C56.0596 16.586 56.3797 17.5447 56.3732 18.529C56.3707 19.3118 56.1947 20.0844 55.8576 20.7909C55.5206 21.4975 55.031 22.1205 54.4242 22.615C53.1255 23.763 51.1995 24.3373 48.6462 24.338C46.9352 24.3902 45.2431 23.9679 43.7572 23.118C43.0954 22.7218 42.5192 22.1976 42.0625 21.576C41.6057 20.9544 41.2776 20.248 41.0972 19.498L45.1482 18.642C45.6035 20.2693 46.8702 21.0827 48.9482 21.082C49.7332 21.1391 50.5164 20.9493 51.1882 20.539C51.4089 20.4 51.5918 20.2086 51.7205 19.9817C51.8493 19.7549 51.9199 19.4997 51.9262 19.239C51.9321 18.9989 51.873 18.7617 51.755 18.5526C51.6371 18.3434 51.4647 18.1701 51.2562 18.051C50.4431 17.6504 49.571 17.383 48.6732 17.259C46.8586 17.0185 45.121 16.3744 43.5882 15.374C43.0767 14.9536 42.6724 14.4176 42.4087 13.8103C42.1449 13.203 42.0292 12.5418 42.0712 11.881C42.0629 11.134 42.2212 10.3946 42.5347 9.71646C42.8481 9.03836 43.3088 8.43866 43.8832 7.96099C45.266 6.83524 47.0186 6.26484 48.7992 6.361C52.4632 6.36567 54.8192 7.73466 55.8672 10.468V10.468Z" fill="white"/>
<path d="M65.9973 24.338C64.8834 24.3958 63.7719 24.1859 62.7559 23.7259C61.7398 23.2659 60.8487 22.5691 60.1573 21.694C58.7571 19.8598 58.0285 17.6007 58.0933 15.294C58.0133 12.9889 58.7547 10.7303 60.1853 8.921C60.9136 8.06257 61.8313 7.38497 62.866 6.9416C63.9008 6.49823 65.0244 6.30118 66.1483 6.36599C67.2807 6.29543 68.413 6.50775 69.4429 6.98381C70.4729 7.45986 71.3682 8.18469 72.0483 9.093C73.3717 10.9013 74.0703 13.0914 74.0383 15.332C74.1112 17.6377 73.3868 19.8981 71.9873 21.732C71.2668 22.61 70.3479 23.3041 69.3065 23.7572C68.265 24.2103 67.1308 24.4094 65.9973 24.338ZM66.1203 9.70201C63.8249 9.70201 62.6776 11.5837 62.6783 15.347C62.6789 19.1103 63.8263 20.9963 66.1203 21.005C68.3423 21.005 69.4533 19.1233 69.4533 15.36C69.4533 11.5967 68.3423 9.71067 66.1203 9.70201Z" fill="white"/>
<path d="M89.3761 10.085H80.6291V13.994H87.5371V17.25H80.6241V24.071H76.0801V6.63699H89.3711L89.3761 10.085Z" fill="white"/>
<path d="M104.889 6.63699V10.085H100.263V24.07H95.828V10.085H91.175V6.63699H104.889Z" fill="white"/>
<path d="M120.595 6.63699V10.085H115.969V24.07H111.535V10.085H106.88V6.63699H120.595Z" fill="white"/>
<path d="M135.562 9.957H126.662V13.533H133.656V16.812H126.662V20.618H135.562V24.067H122.217V6.63699H135.562V9.957Z" fill="white"/>
<path d="M152.447 13.125L147.862 13.393C147.795 10.9323 146.766 9.70202 144.775 9.70202C142.489 9.70202 141.346 11.5964 141.346 15.385C141.346 17.5737 141.657 19.0573 142.279 19.836C142.59 20.2226 142.989 20.53 143.442 20.7332C143.895 20.9363 144.389 21.0295 144.885 21.005C146.695 21.005 147.801 19.905 148.204 17.705L152.447 17.947C152.372 18.8674 152.111 19.7631 151.682 20.5806C151.252 21.3981 150.662 22.1206 149.947 22.705C148.288 23.8834 146.272 24.4515 144.241 24.313C142.21 24.1745 140.29 23.3378 138.806 21.945C138.002 21.0532 137.383 20.0106 136.984 18.8776C136.586 17.7447 136.417 16.5439 136.486 15.345C136.39 12.9848 137.192 10.6759 138.73 8.88302C139.505 8.0389 140.456 7.37576 141.515 6.94074C142.575 6.50572 143.718 6.30949 144.862 6.366C149.353 6.36734 151.882 8.62034 152.447 13.125V13.125Z" fill="white"/>
<path d="M161.728 24.338C160.614 24.3959 159.503 24.186 158.487 23.726C157.471 23.266 156.58 22.5692 155.888 21.694C154.488 19.8599 153.759 17.6007 153.824 15.294C153.743 12.9888 154.485 10.7299 155.916 8.921C156.644 8.06239 157.562 7.38467 158.597 6.94128C159.632 6.49789 160.755 6.30095 161.879 6.36599C163.012 6.29534 164.144 6.50761 165.174 6.98367C166.204 7.45973 167.099 8.18462 167.779 9.093C169.103 10.9011 169.801 13.0913 169.769 15.332C169.842 17.6378 169.118 19.8983 167.718 21.732C166.998 22.6102 166.079 23.3045 165.037 23.7576C163.996 24.2107 162.862 24.4096 161.728 24.338V24.338ZM161.851 9.70201C159.556 9.70201 158.408 11.5837 158.409 15.347C158.41 19.1103 159.557 20.9963 161.851 21.005C164.074 21.005 165.185 19.1233 165.184 15.36C165.183 11.5967 164.072 9.71067 161.851 9.70201Z" fill="white"/>
</g>
<defs>
<clipPath id="clip0">
<rect width="169.769" height="30.706" fill="white"/>
</clipPath>
</defs>
</svg>
